<?xml version="1.0" encoding="UTF-8"?>
<svg version="1.1" xmlns="http://www.w3.org/2000/svg" width="500" height="500">
<path d="M0 0 C0.93522995 -0.0065712 1.8704599 -0.0131424 2.83403015 -0.01991272 C5.95136593 -0.03972869 9.06865295 -0.05133731 12.18603516 -0.0612793 C13.78742277 -0.06739259 13.78742277 -0.06739259 15.42116165 -0.07362938 C21.09050556 -0.09454243 26.75982501 -0.10881167 32.42919922 -0.11816406 C38.24211684 -0.12913582 44.05464176 -0.16341188 49.8674221 -0.20333576 C54.36840435 -0.22972557 58.86929712 -0.23787638 63.37034988 -0.24144554 C65.50939153 -0.24626765 67.6484304 -0.25775376 69.78739548 -0.27648354 C97.1022565 -0.50046037 122.98323646 4.70427604 144.10009766 23.17700195 C145.05722656 24.00844727 145.05722656 24.00844727 146.03369141 24.85668945 C151.12380063 29.59536574 154.60694435 35.20370979 158.10009766 41.17700195 C158.49197266 41.8112207 158.88384766 42.44543945 159.28759766 43.09887695 C168.44235988 59.262754 168.87959856 82.40552567 164.47509766 100.05200195 C161.28566404 110.69463834 156.44533745 119.84734858 149.10009766 128.17700195 C148.44396484 128.92723633 147.78783203 129.6774707 147.11181641 130.45043945 C141.17368846 136.81194398 134.5750529 140.85974941 127.10009766 145.17700195 C126.11009766 145.83700195 125.12009766 146.49700195 124.10009766 147.17700195 C129.74299943 156.71063769 135.39798255 166.2246524 141.47509766 175.48950195 C145.83153583 182.13193672 149.99159864 188.8786062 154.10009766 195.67700195 C158.15610508 202.38431996 162.25060631 209.05215699 166.53759766 215.61450195 C171.17622455 222.73848605 175.7889472 229.87809686 180.35009766 237.05200195 C181.03128662 238.10572998 181.71247559 239.15945801 182.41430664 240.24511719 C183.03764893 241.23068604 183.66099121 242.21625488 184.30322266 243.23168945 C184.86686523 244.11324707 185.43050781 244.99480469 186.01123047 245.90307617 C187.10009766 248.17700195 187.10009766 248.17700195 186.10009766 251.17700195 C176.90367995 251.57259276 167.71022524 251.87373885 158.50712872 252.05780888 C154.23222765 252.14620895 149.96317997 252.26580207 145.69165039 252.45947266 C118.23112854 253.67185693 118.23112854 253.67185693 111.55487061 249.63986206 C107.67674035 245.82390197 105.6758046 241.40190225 103.89785767 236.32131958 C102.77155294 233.293899 101.07734007 230.77652391 99.27197266 228.1105957 C98.1299171 226.2794559 96.98929864 224.44741903 95.85009766 222.61450195 C94.56240796 220.54805163 93.27464545 218.48164668 91.98681641 216.4152832 C91.34276855 215.38097168 90.6987207 214.34666016 90.03515625 213.28100586 C88.15066903 210.25812288 86.26120498 207.23842195 84.36962891 204.2199707 C83.13393903 202.24732247 81.89826192 200.27466623 80.66259766 198.30200195 C80.05472412 197.33222412 79.44685059 196.36244629 78.82055664 195.36328125 C75.42720937 189.93828805 72.06657672 184.49507747 68.74072266 179.02856445 C68.01087825 177.83175376 67.28097961 176.63497614 66.55102539 175.43823242 C65.15352922 173.14669131 63.76375459 170.85102009 62.37768555 168.55249023 C61.74596436 167.51592285 61.11424316 166.47935547 60.46337891 165.41137695 C59.90948486 164.49582031 59.35559082 163.58026367 58.78491211 162.63696289 C57.09792503 160.17382975 55.27680754 158.21148785 53.10009766 156.17700195 C53.17074432 156.75426025 53.24139099 157.33151855 53.31417847 157.92626953 C54.31478783 167.23522542 54.24536087 176.51509211 54.23291016 185.86450195 C54.23358493 187.6576336 54.23455639 189.45076515 54.23580933 191.24389648 C54.23727511 194.9789315 54.23516593 198.71394242 54.23046875 202.44897461 C54.22473888 207.23842762 54.22807799 212.02782498 54.23404121 216.817276 C54.23764894 220.50950544 54.23650783 224.20172159 54.23391342 227.89395142 C54.23324645 229.66102098 54.23406456 231.42809175 54.23639297 233.19515991 C54.23892653 235.65528588 54.23507043 238.11532032 54.22949219 240.57543945 C54.23151642 241.30478195 54.23354065 242.03412445 54.23562622 242.78556824 C54.22267733 245.86123047 54.08087433 248.23467194 53.10009766 251.17700195 C45.03357592 251.20012932 36.96706793 251.21791905 28.90052128 251.22881413 C25.15526728 251.23404209 21.4100359 251.24113817 17.66479492 251.25244141 C14.05328078 251.26327336 10.44178845 251.26927944 6.83025932 251.2718792 C5.44949436 251.27373289 4.06873065 251.27735245 2.68797493 251.28273201 C0.76033813 251.28994642 -1.16732041 251.29041004 -3.0949707 251.29052734 C-4.7437748 251.29385826 -4.7437748 251.29385826 -6.42588806 251.29725647 C-8.89990234 251.17700195 -8.89990234 251.17700195 -9.89990234 250.17700195 C-9.99881962 248.17969362 -10.02622508 246.17883332 -10.02688599 244.17907715 C-10.02970581 242.87495377 -10.03252563 241.57083038 -10.03543091 240.22718811 C-10.03348631 238.76840196 -10.03143812 237.30961595 -10.02929688 235.85083008 C-10.03065085 234.32523049 -10.03243076 232.79963123 -10.03460693 231.27403259 C-10.03918169 227.11919039 -10.03739154 222.96437291 -10.03422785 218.80953026 C-10.03170446 214.47112331 -10.03404172 210.13271855 -10.03561401 205.79431152 C-10.03743577 198.50732033 -10.03502924 191.22033926 -10.03027344 183.93334961 C-10.0248308 175.49628339 -10.02659346 167.05924133 -10.03209984 158.62217569 C-10.03663079 151.39162441 -10.03728161 144.16108041 -10.03466117 136.93052816 C-10.0330983 132.60619301 -10.03290492 128.28186923 -10.03619766 123.95753479 C-10.03907612 119.89302496 -10.03710116 115.82854643 -10.03130341 111.76403999 C-10.02997567 110.26800654 -10.03037015 108.77197047 -10.03256607 107.27593803 C-10.03527701 105.24226853 -10.03128326 103.20859331 -10.02688599 101.17492676 C-10.02650896 100.03412407 -10.02613194 98.89332138 -10.02574348 97.71794891 C-9.89990234 95.17700195 -9.89990234 95.17700195 -8.89990234 94.17700195 C-7.12120508 94.0193579 -5.33671758 93.92599518 -3.55224609 93.8605957 C-2.47265625 93.81870117 -1.39306641 93.77680664 -0.28076172 93.73364258 C0.85554687 93.69432617 1.99185547 93.65500977 3.16259766 93.61450195 C4.30277344 93.57131836 5.44294922 93.52813477 6.61767578 93.48364258 C9.44501961 93.37717356 12.27245504 93.27515988 15.10009766 93.17700195 C14.59579224 92.40960693 14.59579224 92.40960693 14.08129883 91.62670898 C-10.02348118 54.8905496 -10.02348118 54.8905496 -10.02929688 48.19238281 C-10.03244904 47.15468246 -10.0356012 46.11698212 -10.03884888 45.0478363 C-10.03682465 43.92385941 -10.03480042 42.79988251 -10.03271484 41.6418457 C-10.03367157 40.49285294 -10.0346283 39.34386017 -10.03561401 38.16004944 C-10.0362954 35.72811834 -10.03444401 33.29618543 -10.03027344 30.86425781 C-10.02491977 27.12666777 -10.03022238 23.38919764 -10.03662109 19.65161133 C-10.0359604 17.29418919 -10.03467942 14.93676712 -10.03271484 12.5793457 C-10.03473907 11.45334457 -10.03676331 10.32734344 -10.03884888 9.16722107 C-10.03569672 8.13267288 -10.03254456 7.09812469 -10.02929688 6.03222656 C-10.02850128 5.11670517 -10.02770569 4.20118378 -10.02688599 3.25791931 C-9.71869668 -1.79246716 -3.87852658 0.01168804 0 0 Z M72.10009766 62.17700195 C72.10009766 65.61311999 72.796242 66.70397975 74.54931641 69.59887695 C75.06816406 70.4599707 75.58701172 71.32106445 76.12158203 72.20825195 C76.67136719 73.10543945 77.22115234 74.00262695 77.78759766 74.92700195 C78.31804687 75.8087207 78.84849609 76.69043945 79.39501953 77.59887695 C82.4381743 82.61728188 85.62020582 87.45106351 89.10009766 92.17700195 C94.3199326 91.92237586 96.90661663 90.0644312 100.68212891 86.74731445 C103.46524551 83.66518532 103.39776713 80.16451629 103.29541016 76.1652832 C102.97981459 72.95252032 102.30711943 71.57876095 100.10009766 69.17700195 C93.0051529 64.89577888 87.07363916 63.14750927 78.85009766 62.61450195 C77.58681641 62.53071289 76.32353516 62.44692383 75.02197266 62.3605957 C74.05775391 62.30000977 73.09353516 62.23942383 72.10009766 62.17700195 Z " fill="#000000" transform="translate(173.89990234375,91.822998046875)"/>
<path d="M0 0 C0.93522995 -0.0065712 1.8704599 -0.0131424 2.83403015 -0.01991272 C5.95136593 -0.03972869 9.06865295 -0.05133731 12.18603516 -0.0612793 C13.78742277 -0.06739259 13.78742277 -0.06739259 15.42116165 -0.07362938 C21.09050556 -0.09454243 26.75982501 -0.10881167 32.42919922 -0.11816406 C38.24211684 -0.12913582 44.05464176 -0.16341188 49.8674221 -0.20333576 C54.36840435 -0.22972557 58.86929712 -0.23787638 63.37034988 -0.24144554 C65.50939153 -0.24626765 67.6484304 -0.25775376 69.78739548 -0.27648354 C97.1022565 -0.50046037 122.98323646 4.70427604 144.10009766 23.17700195 C145.05722656 24.00844727 145.05722656 24.00844727 146.03369141 24.85668945 C151.12380063 29.59536574 154.60694435 35.20370979 158.10009766 41.17700195 C158.49197266 41.8112207 158.88384766 42.44543945 159.28759766 43.09887695 C168.44235988 59.262754 168.87959856 82.40552567 164.47509766 100.05200195 C161.28566404 110.69463834 156.44533745 119.84734858 149.10009766 128.17700195 C148.44396484 128.92723633 147.78783203 129.6774707 147.11181641 130.45043945 C141.17368846 136.81194398 134.5750529 140.85974941 127.10009766 145.17700195 C126.11009766 145.83700195 125.12009766 146.49700195 124.10009766 147.17700195 C129.74299943 156.71063769 135.39798255 166.2246524 141.47509766 175.48950195 C145.83153583 182.13193672 149.99159864 188.8786062 154.10009766 195.67700195 C158.15610508 202.38431996 162.25060631 209.05215699 166.53759766 215.61450195 C171.17622455 222.73848605 175.7889472 229.87809686 180.35009766 237.05200195 C181.03128662 238.10572998 181.71247559 239.15945801 182.41430664 240.24511719 C183.03764893 241.23068604 183.66099121 242.21625488 184.30322266 243.23168945 C184.86686523 244.11324707 185.43050781 244.99480469 186.01123047 245.90307617 C187.10009766 248.17700195 187.10009766 248.17700195 186.10009766 251.17700195 C176.90367995 251.57259276 167.71022524 251.87373885 158.50712872 252.05780888 C154.23222765 252.14620895 149.96317997 252.26580207 145.69165039 252.45947266 C118.23112854 253.67185693 118.23112854 253.67185693 111.55487061 249.63986206 C107.67674035 245.82390197 105.6758046 241.40190225 103.89785767 236.32131958 C102.77155294 233.293899 101.07734007 230.77652391 99.27197266 228.1105957 C98.1299171 226.2794559 96.98929864 224.44741903 95.85009766 222.61450195 C94.56240796 220.54805163 93.27464545 218.48164668 91.98681641 216.4152832 C91.34276855 215.38097168 90.6987207 214.34666016 90.03515625 213.28100586 C88.15066903 210.25812288 86.26120498 207.23842195 84.36962891 204.2199707 C83.13393903 202.24732247 81.89826192 200.27466623 80.66259766 198.30200195 C80.05472412 197.33222412 79.44685059 196.36244629 78.82055664 195.36328125 C75.42720937 189.93828805 72.06657672 184.49507747 68.74072266 179.02856445 C68.01087825 177.83175376 67.28097961 176.63497614 66.55102539 175.43823242 C65.15352922 173.14669131 63.76375459 170.85102009 62.37768555 168.55249023 C61.74596436 167.51592285 61.11424316 166.47935547 60.46337891 165.41137695 C59.90948486 164.49582031 59.35559082 163.58026367 58.78491211 162.63696289 C57.09792503 160.17382975 55.27680754 158.21148785 53.10009766 156.17700195 C53.17074432 156.75426025 53.24139099 157.33151855 53.31417847 157.92626953 C54.31478783 167.23522542 54.24536087 176.51509211 54.23291016 185.86450195 C54.23358493 187.6576336 54.23455639 189.45076515 54.23580933 191.24389648 C54.23727511 194.9789315 54.23516593 198.71394242 54.23046875 202.44897461 C54.22473888 207.23842762 54.22807799 212.02782498 54.23404121 216.817276 C54.23764894 220.50950544 54.23650783 224.20172159 54.23391342 227.89395142 C54.23324645 229.66102098 54.23406456 231.42809175 54.23639297 233.19515991 C54.23892653 235.65528588 54.23507043 238.11532032 54.22949219 240.57543945 C54.23151642 241.30478195 54.23354065 242.03412445 54.23562622 242.78556824 C54.22267733 245.86123047 54.08087433 248.23467194 53.10009766 251.17700195 C45.03357592 251.20012932 36.96706793 251.21791905 28.90052128 251.22881413 C25.15526728 251.23404209 21.4100359 251.24113817 17.66479492 251.25244141 C14.05328078 251.26327336 10.44178845 251.26927944 6.83025932 251.2718792 C5.44949436 251.27373289 4.06873065 251.27735245 2.68797493 251.28273201 C0.76033813 251.28994642 -1.16732041 251.29041004 -3.0949707 251.29052734 C-4.7437748 251.29385826 -4.7437748 251.29385826 -6.42588806 251.29725647 C-8.89990234 251.17700195 -8.89990234 251.17700195 -9.89990234 250.17700195 C-9.99881962 248.17969362 -10.02622508 246.17883332 -10.02688599 244.17907715 C-10.02970581 242.87495377 -10.03252563 241.57083038 -10.03543091 240.22718811 C-10.03348631 238.76840196 -10.03143812 237.30961595 -10.02929688 235.85083008 C-10.03065085 234.32523049 -10.03243076 232.79963123 -10.03460693 231.27403259 C-10.03918169 227.11919039 -10.03739154 222.96437291 -10.03422785 218.80953026 C-10.03170446 214.47112331 -10.03404172 210.13271855 -10.03561401 205.79431152 C-10.03743577 198.50732033 -10.03502924 191.22033926 -10.03027344 183.93334961 C-10.0248308 175.49628339 -10.02659346 167.05924133 -10.03209984 158.62217569 C-10.03663079 151.39162441 -10.03728161 144.16108041 -10.03466117 136.93052816 C-10.0330983 132.60619301 -10.03290492 128.28186923 -10.03619766 123.95753479 C-10.03907612 119.89302496 -10.03710116 115.82854643 -10.03130341 111.76403999 C-10.02997567 110.26800654 -10.03037015 108.77197047 -10.03256607 107.27593803 C-10.03527701 105.24226853 -10.03128326 103.20859331 -10.02688599 101.17492676 C-10.02650896 100.03412407 -10.02613194 98.89332138 -10.02574348 97.71794891 C-9.89990234 95.17700195 -9.89990234 95.17700195 -8.89990234 94.17700195 C-7.12120508 94.0193579 -5.33671758 93.92599518 -3.55224609 93.8605957 C-2.47265625 93.81870117 -1.39306641 93.77680664 -0.28076172 93.73364258 C0.85554687 93.69432617 1.99185547 93.65500977 3.16259766 93.61450195 C4.30277344 93.57131836 5.44294922 93.52813477 6.61767578 93.48364258 C9.44501961 93.37717356 12.27245504 93.27515988 15.10009766 93.17700195 C14.59579224 92.40960693 14.59579224 92.40960693 14.08129883 91.62670898 C-10.02348118 54.8905496 -10.02348118 54.8905496 -10.02929688 48.19238281 C-10.03244904 47.15468246 -10.0356012 46.11698212 -10.03884888 45.0478363 C-10.03682465 43.92385941 -10.03480042 42.79988251 -10.03271484 41.6418457 C-10.03367157 40.49285294 -10.0346283 39.34386017 -10.03561401 38.16004944 C-10.0362954 35.72811834 -10.03444401 33.29618543 -10.03027344 30.86425781 C-10.02491977 27.12666777 -10.03022238 23.38919764 -10.03662109 19.65161133 C-10.0359604 17.29418919 -10.03467942 14.93676712 -10.03271484 12.5793457 C-10.03473907 11.45334457 -10.03676331 10.32734344 -10.03884888 9.16722107 C-10.03569672 8.13267288 -10.03254456 7.09812469 -10.02929688 6.03222656 C-10.02850128 5.11670517 -10.02770569 4.20118378 -10.02688599 3.25791931 C-9.71869668 -1.79246716 -3.87852658 0.01168804 0 0 Z M3.10009766 12.17700195 C2.96136526 17.5308256 2.86107644 22.88357634 2.79454041 28.23878479 C2.76677084 30.05580397 2.72896566 31.87270123 2.6804657 33.68928528 C2.29615453 48.466596 4.28690317 57.33474299 14.14453125 68.75415039 C17.90902362 73.41817315 20.87204588 78.62300472 23.97509766 83.73950195 C25.17808541 85.68000622 26.38372521 87.61886943 27.59228516 89.5559082 C28.10130371 90.37647705 28.61032227 91.1970459 29.13476562 92.04248047 C32.09859423 96.76951097 35.10468374 101.46992294 38.10009766 106.17700195 C26.55009766 106.17700195 15.00009766 106.17700195 3.10009766 106.17700195 C3.10009766 149.73700195 3.10009766 193.29700195 3.10009766 238.17700195 C15.64009766 238.17700195 28.18009766 238.17700195 41.10009766 238.17700195 C41.10009766 207.15700195 41.10009766 176.13700195 41.10009766 144.17700195 C48.36009766 144.17700195 55.62009766 144.17700195 63.10009766 144.17700195 C63.76009766 145.82700195 64.42009766 147.47700195 65.10009766 149.17700195 C66.04530626 150.8307369 67.03153544 152.46144609 68.04931641 154.0715332 C68.64228516 155.01448242 69.23525391 155.95743164 69.84619141 156.92895508 C70.48685547 157.93893555 71.12751953 158.94891602 71.78759766 159.98950195 C73.15619436 162.16261158 74.52468091 164.33579058 75.89306641 166.5090332 C76.59351074 167.61843262 77.29395508 168.72783203 78.015625 169.87084961 C81.22618909 174.96307951 84.41266352 180.07027531 87.60009766 185.17700195 C88.84345527 187.16666776 90.08694545 189.15625073 91.33056641 191.14575195 C99.02587891 203.45825195 99.02587891 203.45825195 100.98242188 206.58886719 C102.25340464 208.62234315 103.52455907 210.65571182 104.79589844 212.68896484 C107.61101015 217.19156754 110.42408826 221.69538294 113.22900391 226.2043457 C113.69781982 226.9571582 114.16663574 227.7099707 114.6496582 228.4855957 C115.50771779 229.86380156 116.36472117 231.2426658 117.22045898 232.62231445 C118.95282496 235.55701509 118.95282496 235.55701509 121.10009766 238.17700195 C122.4816988 238.26978525 123.86797803 238.29447238 125.25268555 238.29052734 C126.1335231 238.29045181 127.01436066 238.29037628 127.92189026 238.29029846 C129.35781776 238.28255653 129.35781776 238.28255653 130.82275391 238.2746582 C131.79796494 238.27324326 132.77317596 238.27182831 133.77793884 238.27037048 C136.90618908 238.26475328 140.03436889 238.25219788 143.16259766 238.23950195 C145.277831 238.23448917 147.39306546 238.22992588 149.50830078 238.22583008 C154.70559062 238.21477827 159.90283911 238.19802342 165.10009766 238.17700195 C164.4801582 236.91805471 163.85796757 235.66021588 163.23486328 234.40283203 C162.88862915 233.70225174 162.54239502 233.00167145 162.18566895 232.27986145 C160.50507723 229.02438823 158.56859271 225.95157805 156.60009766 222.86450195 C155.95488159 221.84199341 155.95488159 221.84199341 155.29663086 220.79882812 C153.90138548 218.58925273 152.50099557 216.38299709 151.10009766 214.17700195 C149.16117315 211.11540227 147.22419452 208.05257439 145.28759766 204.98950195 C144.78591064 204.19656738 144.28422363 203.40363281 143.76733398 202.58666992 C139.5309917 195.88175458 135.35225666 189.14217906 131.18481445 182.39428711 C125.62685429 173.39900362 120.02101558 164.43385235 114.41259766 155.4699707 C113.56761719 154.11718018 113.56761719 154.11718018 112.70556641 152.73706055 C111.6727849 151.09020123 110.63417909 149.44697258 109.58837891 147.80834961 C109.13849609 147.1011377 108.68861328 146.39392578 108.22509766 145.6652832 C107.83580078 145.0585376 107.44650391 144.45179199 107.04541016 143.82666016 C106.10009766 142.17700195 106.10009766 142.17700195 105.10009766 139.17700195 C106.09396484 139.08418945 107.08783203 138.99137695 108.11181641 138.89575195 C112.45375563 138.26721287 116.02587294 136.65449969 119.91259766 134.67700195 C120.96145142 134.14623047 120.96145142 134.14623047 122.03149414 133.60473633 C128.26307689 130.31958111 133.23024665 126.27272731 138.10009766 121.17700195 C138.74333984 120.5530957 139.38658203 119.92918945 140.04931641 119.28637695 C150.97108882 108.00923233 154.64049255 91.56418884 154.52197266 76.28808594 C153.8924399 59.11053914 147.19825685 43.33530943 134.64599609 31.51831055 C130.22724765 27.68435541 125.26969793 24.86218268 120.10009766 22.17700195 C119.20291016 21.7077832 118.30572266 21.23856445 117.38134766 20.75512695 C114.33558388 19.3372714 111.28305885 18.25732605 108.10009766 17.17700195 C107.15833176 16.85545135 107.15833176 16.85545135 106.19754028 16.52740479 C86.75220717 10.25655275 66.27455407 11.59532201 46.11383057 11.8336792 C41.25259377 11.88554855 36.39122103 11.90781525 31.52978516 11.93286133 C22.05287282 11.98590462 12.57655368 12.07082628 3.10009766 12.17700195 Z " fill="#727171" transform="translate(173.89990234375,91.822998046875)"/>
<path d="M0 0 C5.11872862 -0.12557268 10.23652056 -0.21524578 15.35644531 -0.2746582 C17.09032852 -0.29947829 18.82411087 -0.33334664 20.55761719 -0.37719727 C34.78409561 -0.72750163 49.98838427 0.01050824 61.2265625 10 C66.78520857 16.26878147 68.87757284 22.68914407 68.48046875 31.0390625 C67.26825189 38.50947209 63.73570418 44.0908941 57.84375 48.74609375 C53.43071046 51.74733462 49.68330128 53.55860133 44.4375 54.75 C42.76494141 55.14445312 42.76494141 55.14445312 41.05859375 55.546875 C38.08471284 55.98744995 36.74706683 56.04873776 34 55 C32.63476562 53.44384766 32.63476562 53.44384766 31.40625 51.4140625 C30.93944824 50.65778564 30.47264648 49.90150879 29.99169922 49.12231445 C29.49943848 48.29820068 29.00717773 47.47408691 28.5 46.625 C27.43002904 44.8813008 26.35970668 43.13781718 25.2890625 41.39453125 C24.74411133 40.49814941 24.19916016 39.60176758 23.63769531 38.67822266 C21.09843126 34.52560986 18.48463055 30.42109962 15.875 26.3125 C14.4014449 23.97977424 12.9297093 21.64590721 11.45800781 19.31201172 C10.47348539 17.75082161 9.48844661 16.18995704 8.50292969 14.62939453 C7.08292173 12.37940833 5.66600658 10.12750597 4.25 7.875 C3.60393799 6.85273315 3.60393799 6.85273315 2.94482422 5.80981445 C0 1.11455745 0 1.11455745 0 0 Z M24 12 C24 15.43611804 24.69614434 16.5269778 26.44921875 19.421875 C26.96806641 20.28296875 27.48691406 21.1440625 28.02148438 22.03125 C28.57126953 22.9284375 29.12105469 23.825625 29.6875 24.75 C30.21794922 25.63171875 30.74839844 26.5134375 31.29492188 27.421875 C34.33807665 32.44027993 37.52010817 37.27406156 41 42 C46.21983494 41.74537391 48.80651897 39.88742925 52.58203125 36.5703125 C55.36514785 33.48818337 55.29766947 29.98751434 55.1953125 25.98828125 C54.87971693 22.77551836 54.20702178 21.40175899 52 19 C44.90505525 14.71877693 38.9735415 12.97050732 30.75 12.4375 C29.48671875 12.35371094 28.2234375 12.26992187 26.921875 12.18359375 C25.95765625 12.12300781 24.9934375 12.06242188 24 12 Z " fill="#717171" transform="translate(222,142)"/>
<path d="M0 0 C0.87537415 0.00359528 1.75074829 0.00719055 2.65264893 0.01089478 C4.02812141 0.01067574 4.02812141 0.01067574 5.43138123 0.01045227 C8.47773564 0.01115177 11.52402973 0.01894589 14.57037354 0.02676392 C16.67644721 0.02862796 18.78252132 0.03005193 20.88859558 0.03105164 C26.44364612 0.03487786 31.99867069 0.04470903 37.55371094 0.05575562 C43.21746469 0.0659675 48.88122262 0.07054878 54.54498291 0.07559204 C65.66673914 0.0863312 76.78847606 0.10340887 87.91021729 0.12442017 C87.91021729 0.45442017 87.91021729 0.78442017 87.91021729 1.12442017 C57.22021729 1.12442017 26.53021729 1.12442017 -5.08978271 1.12442017 C-5.00728271 9.76629517 -4.92478271 18.40817017 -4.83978271 27.31192017 C-4.8239917 30.0333728 -4.80820068 32.75482544 -4.79193115 35.55874634 C-4.76256203 37.71998223 -4.73173636 39.88119903 -4.69915771 42.04238892 C-4.69802979 43.16117432 -4.69690186 44.27995972 -4.69573975 45.43264771 C-4.64241911 51.6792102 -4.64241911 51.6792102 -2.12249756 57.26113892 C-1.45170166 57.87602173 -0.78090576 58.49090454 -0.08978271 59.12442017 C0.65686661 60.3731268 1.36672821 61.64468341 2.03521729 62.93692017 C4.95317154 68.36781295 8.27449406 73.53314381 11.60797119 78.71548462 C14.91021729 83.90999394 14.91021729 83.90999394 14.91021729 86.12442017 C15.57021729 86.12442017 16.23021729 86.12442017 16.91021729 86.12442017 C17.97796953 88.0890843 18.97575194 90.09297376 19.91021729 92.12442017 C19.58021729 92.78442017 19.25021729 93.44442017 18.91021729 94.12442017 C14.3146304 87.82976066 10.07556928 81.33367954 5.91021729 74.74942017 C5.42456299 73.98395874 4.93890869 73.21849731 4.4385376 72.42984009 C3.43914099 70.84202459 2.45970261 69.24151321 1.49810791 67.63052368 C-0.04573492 65.08137886 -0.04573492 65.08137886 -2.00579834 62.78823853 C-9.88951732 52.16578586 -7.87848544 39.02860464 -7.58978271 26.43692017 C-7.56320902 23.99489499 -7.53974327 21.5528339 -7.51947021 19.11074829 C-7.46935079 14.68037111 -7.41391244 10.25052148 -7.31439209 5.82095337 C-7.29549927 4.93559402 -7.27660645 4.05023468 -7.25714111 3.13804626 C-6.89393716 -1.23195821 -3.6558554 0.00634298 0 0 Z " fill="#615D5E" transform="translate(171.08978271484375,91.87557983398438)"/>
<path d="M0 0 C4.65912528 1.99195817 6.35817145 5.38147507 8.8125 9.625 C9.79148408 11.27171689 10.77203559 12.91750263 11.75390625 14.5625 C12.53918701 15.88507813 12.53918701 15.88507813 13.34033203 17.234375 C16.24378909 22.07261589 19.25038366 26.846003 22.25 31.625 C23.53655564 33.67962657 24.82301291 35.73431475 26.109375 37.7890625 C26.75326172 38.81676758 27.39714844 39.84447266 28.06054688 40.90332031 C31.82712143 46.91732229 35.58620777 52.93600826 39.34545898 58.95458984 C42.62716255 64.207563 45.91370005 69.45743252 49.20703125 74.703125 C49.89410156 75.79882812 50.58117187 76.89453125 51.2890625 78.0234375 C52.60920431 80.12852849 53.93075385 82.23273751 55.25390625 84.3359375 C55.846875 85.28210938 56.43984375 86.22828125 57.05078125 87.203125 C57.83449097 88.45077637 57.83449097 88.45077637 58.6340332 89.72363281 C59.86607398 91.7768139 60.96478887 93.84219984 62 96 C58.12963382 94.70987794 57.5582155 93.17612353 55.4375 89.75 C54.83808594 88.79609375 54.23867188 87.8421875 53.62109375 86.859375 C52.15978014 84.28182907 51.01860259 81.77708567 50 79 C49.34 79 48.68 79 48 79 C46.99491199 77.21118264 45.99607264 75.41885304 45 73.625 C44.443125 72.62726563 43.88625 71.62953125 43.3125 70.6015625 C42 68 42 68 42 66 C41.34 66 40.68 66 40 66 C38.34772287 63.42341428 36.81378173 60.85051445 35.3125 58.1875 C34.40908983 56.61630232 33.50413963 55.04598913 32.59765625 53.4765625 C32.15437988 52.70731445 31.71110352 51.93806641 31.25439453 51.14550781 C29.13351539 47.51797065 26.85404837 43.99743734 24.57421875 40.46875 C23.01783847 38.02797497 21.53375032 35.55534236 20.0625 33.0625 C17.8217692 29.29209698 15.44896405 25.63859364 13 22 C8.23108958 14.90590382 3.66353074 7.73412044 0 0 Z " fill="#636060" transform="translate(299,245)"/>
<path d="M0 0 C1.65 0 3.3 0 5 0 C5.28875 0.804375 5.5775 1.60875 5.875 2.4375 C6.73262568 5.1326468 6.73262568 5.1326468 9 6 C10.10144685 7.98888201 11.13418595 10.0162536 12.125 12.0625 C12.66382813 13.16722656 13.20265625 14.27195312 13.7578125 15.41015625 C14.16773438 16.26480469 14.57765625 17.11945313 15 18 C14.34 18 13.68 18 13 18 C11.88671875 16.54711914 11.88671875 16.54711914 10.6875 14.53515625 C10.25179687 13.81779297 9.81609375 13.10042969 9.3671875 12.36132812 C8.91601562 11.60271484 8.46484375 10.84410156 8 10.0625 C7.10870748 8.57149494 6.21307542 7.08307281 5.3125 5.59765625 C4.91675781 4.93258057 4.52101562 4.26750488 4.11328125 3.58227539 C3.07395362 1.83940857 3.07395362 1.83940857 1 1 C1.07105453 1.64709427 1.14210907 2.29418854 1.21531677 2.96089172 C1.95112156 10.2174173 2.13178212 17.37811684 2.09765625 24.66796875 C2.09553383 26.40920769 2.09553383 26.40920769 2.09336853 28.18562317 C2.08782058 31.8529429 2.07527805 35.52019907 2.0625 39.1875 C2.05747826 41.69075432 2.05291654 44.19400961 2.04882812 46.69726562 C2.03786826 52.79819837 2.02118287 58.89909464 2 65 C1.01 64.67 0.02 64.34 -1 64 C-1.02314421 55.95074899 -1.04092572 47.90151183 -1.05181217 39.85223579 C-1.05703644 36.1148575 -1.06412584 32.37750193 -1.07543945 28.64013672 C-1.0862845 25.03510184 -1.09228028 21.43008884 -1.09487724 17.82503891 C-1.09672857 16.44789154 -1.1003436 15.07074541 -1.10573006 13.69360733 C-1.11296181 11.76856906 -1.11340824 9.84350888 -1.11352539 7.91845703 C-1.115746 6.82147491 -1.11796661 5.7244928 -1.12025452 4.5942688 C-1 2 -1 2 0 0 Z " fill="#885051" transform="translate(226,247)"/>
<path d="M0 0 C0.33 0 0.66 0 1 0 C1.7953785 21.56359483 -1.08582887 40.24792092 -16 57 C-23.59295775 65.06197183 -23.59295775 65.06197183 -28 68 C-28.99 67.67 -29.98 67.34 -31 67 C-26.25 63 -26.25 63 -24 63 C-23.9175 62.38125 -23.835 61.7625 -23.75 61.125 C-23 59 -23 59 -21.125 57.9375 C-20.42375 57.628125 -19.7225 57.31875 -19 57 C-17.22809091 55.64555699 -17.22809091 55.64555699 -16 54 C-16 53.01 -16 52.02 -16 51 C-15.01 51 -14.02 51 -13 51 C-12.73058594 50.2884375 -12.46117187 49.576875 -12.18359375 48.84375 C-10.97672886 45.94408783 -9.55396721 43.26281966 -8.0625 40.5 C-4.86445151 34.16630396 -3.23062741 27.96131027 -2 21 C-1.86851562 20.27039063 -1.73703125 19.54078125 -1.6015625 18.7890625 C-0.87358272 13.96865584 -0.95423988 9.17848539 -1.0625 4.3203125 C-1 2 -1 2 0 0 Z " fill="#676365" transform="translate(339,163)"/>
<path d="M0 0 C4.62 0 9.24 0 14 0 C14 0.33 14 0.66 14 1 C10.37 1.33 6.74 1.66 3 2 C3 4.71657139 4.08002797 6.03712931 5.484375 8.359375 C6.00773438 9.22820312 6.53109375 10.09703125 7.0703125 10.9921875 C7.62460938 11.90226563 8.17890625 12.81234375 8.75 13.75 C9.28882813 14.64460937 9.82765625 15.53921875 10.3828125 16.4609375 C13.15576572 21.04645527 15.98023787 25.57297008 19 30 C24.63860699 29.59724236 27.07346846 27.83521686 31 24 C31.495 22.515 31.495 22.515 32 21 C32.66 21 33.32 21 34 21 C33.66879228 23.98086944 33.2130076 25.7214516 31.375 28.125 C27.01988658 31.56324744 22.59087308 33.50826119 17 33 C16.58234375 32.13761719 16.1646875 31.27523437 15.734375 30.38671875 C14.04371481 27.08536202 12.20653179 23.96251618 10.25 20.8125 C9.90654541 20.2551416 9.56309082 19.6977832 9.20922852 19.12353516 C7.47697434 16.32317011 5.70820418 13.5604185 3.88671875 10.81640625 C3.24347656 9.84574219 2.60023438 8.87507812 1.9375 7.875 C1.05384766 6.57175781 1.05384766 6.57175781 0.15234375 5.2421875 C-0.22792969 4.50226563 -0.60820312 3.76234375 -1 3 C-0.67 2.01 -0.34 1.02 0 0 Z " fill="#676464" transform="translate(244,153)"/>
<path d="M0 0 C14.86677636 1.7980467 27.14098747 14.90605403 35.98828125 26.125 C36.32214844 26.74375 36.65601563 27.3625 37 28 C36.505 29.485 36.505 29.485 36 31 C33.01844414 28.22406868 31.04991835 25.50194384 29 22 C26.25009141 18.23568069 23.43034574 15.61829679 19.625 12.9375 C18.65175781 12.25042969 17.67851562 11.56335938 16.67578125 10.85546875 C15.79277344 10.24316406 14.90976562 9.63085938 14 9 C12.948125 8.2575 11.89625 7.515 10.8125 6.75 C7.32267924 4.57855597 3.70683762 2.76874485 0 1 C0 0.67 0 0.34 0 0 Z " fill="#676465" transform="translate(293,101)"/>
<path d="M0 0 C2 2.5 2 2.5 4 5 C5.051875 6.2065625 5.051875 6.2065625 6.125 7.4375 C8.15705828 10.21464631 9.0797427 12.70241134 10 16 C10.66 16 11.32 16 12 16 C12.41894531 16.85851562 12.83789062 17.71703125 13.26953125 18.6015625 C14.96711095 21.93540977 16.78937471 25.15176838 18.6875 28.375 C19.31011719 29.43460937 19.93273437 30.49421875 20.57421875 31.5859375 C21.04472656 32.38257813 21.51523437 33.17921875 22 34 C21.01 34 20.02 34 19 34 C17.34594727 31.90795898 17.34594727 31.90795898 15.56640625 28.99609375 C14.91736328 27.94486328 14.26832031 26.89363281 13.59960938 25.81054688 C12.59124023 24.14088867 12.59124023 24.14088867 11.5625 22.4375 C10.89412109 21.35146484 10.22574219 20.26542969 9.53710938 19.14648438 C7.6734432 16.10809898 5.8326152 13.05718596 4 10 C3.54995605 9.26281738 3.09991211 8.52563477 2.63623047 7.76611328 C0 3.35382266 0 3.35382266 0 0 Z " fill="#6A6667" transform="translate(243,268)"/>
<path d="M0 0 C1.65 0 3.3 0 5 0 C5.28875 0.804375 5.5775 1.60875 5.875 2.4375 C6.73262568 5.1326468 6.73262568 5.1326468 9 6 C10.10144685 7.98888201 11.13418595 10.0162536 12.125 12.0625 C12.66382813 13.16722656 13.20265625 14.27195312 13.7578125 15.41015625 C14.16773438 16.26480469 14.57765625 17.11945313 15 18 C14.34 18 13.68 18 13 18 C11.88671875 16.54711914 11.88671875 16.54711914 10.6875 14.53515625 C10.25179687 13.81779297 9.81609375 13.10042969 9.3671875 12.36132812 C8.91601562 11.60271484 8.46484375 10.84410156 8 10.0625 C7.10870748 8.57149494 6.21307542 7.08307281 5.3125 5.59765625 C4.91675781 4.93258057 4.52101562 4.26750488 4.11328125 3.58227539 C3.07395362 1.83940857 3.07395362 1.83940857 1 1 C1.0721875 1.62003906 1.144375 2.24007812 1.21875 2.87890625 C2.06441862 10.94799438 2.09842611 18.89625007 2 27 C1.67 27 1.34 27 1 27 C0.63651564 22.87576495 0.28578938 18.75054384 -0.0625 14.625 C-0.16626953 13.449375 -0.27003906 12.27375 -0.37695312 11.0625 C-0.47041016 9.94101562 -0.56386719 8.81953125 -0.66015625 7.6640625 C-0.74918213 6.62717285 -0.83820801 5.5902832 -0.92993164 4.52197266 C-1 2 -1 2 0 0 Z " fill="#4D4A4B" transform="translate(226,247)"/>
<path d="M0 0 C4.62 0 9.24 0 14 0 C14 0.33 14 0.66 14 1 C10.37 1.33 6.74 1.66 3 2 C3 4.54930494 3.8257785 5.55060113 5.1875 7.6953125 C5.63867188 8.41074219 6.08984375 9.12617188 6.5546875 9.86328125 C7.03164062 10.60964844 7.50859375 11.35601562 8 12.125 C8.47695312 12.87910156 8.95390625 13.63320312 9.4453125 14.41015625 C10.62623284 16.27601039 11.81126257 18.13912008 13 20 C12.01 20.33 11.02 20.66 10 21 C8.12914904 18.0728152 6.28131993 15.13177275 4.4375 12.1875 C3.90447266 11.35412109 3.37144531 10.52074219 2.82226562 9.66210938 C2.32275391 8.85966797 1.82324219 8.05722656 1.30859375 7.23046875 C0.60947876 6.12288208 0.60947876 6.12288208 -0.10375977 4.99291992 C-1 3 -1 3 0 0 Z " fill="#555152" transform="translate(244,153)"/>
<path d="M0 0 C10.44470495 0.2635132 23.55098819 2.2754941 33 7 C33 7.66 33 8.32 33 9 C30.03 8.67 27.06 8.34 24 8 C24 7.34 24 6.68 24 6 C22.6696875 6.061875 22.6696875 6.061875 21.3125 6.125 C18 6 18 6 15.71875 5.0625 C12.54482866 3.82211695 9.55838663 3.35169104 6.1875 2.875 C4.44533203 2.62363281 4.44533203 2.62363281 2.66796875 2.3671875 C1.78753906 2.24601562 0.90710938 2.12484375 0 2 C0 1.34 0 0.68 0 0 Z " fill="#656163" transform="translate(259,92)"/>
<path d="M0 0 C0.763125 0.804375 1.52625 1.60875 2.3125 2.4375 C4.79430898 5.16799024 4.79430898 5.16799024 8 6 C8 8.97 8 11.94 8 15 C7.67 15 7.34 15 7 15 C7 13.35 7 11.7 7 10 C6.34 10 5.68 10 5 10 C4.6596875 9.1028125 4.6596875 9.1028125 4.3125 8.1875 C2.66692986 5.4448831 0.72964203 4.58031907 -2 3 C-2 2.34 -2 1.68 -2 1 C-1.34 0.67 -0.68 0.34 0 0 Z " fill="#696264" transform="translate(271,156)"/>
<path d="M0 0 C0 0.99 0 1.98 0 3 C-1.75 4.38671875 -1.75 4.38671875 -4 5.6875 C-4.7425 6.12449219 -5.485 6.56148437 -6.25 7.01171875 C-6.8275 7.33785156 -7.405 7.66398438 -8 8 C-7.67 9.65 -7.34 11.3 -7 13 C-9.0625 11.25 -9.0625 11.25 -11 9 C-10.90234375 6.99609375 -10.90234375 6.99609375 -10 5 C-7.96875 3.76953125 -7.96875 3.76953125 -5.5 2.8125 C-2.51334853 1.77675178 -2.51334853 1.77675178 0 0 Z " fill="#646162" transform="translate(306,231)"/>
<path d="M0 0 C0 0.33 0 0.66 0 1 C-5.10298771 2.10048457 -9.72081849 1.94251169 -14.875 1.5625 C-15.65875 1.51029297 -16.4425 1.45808594 -17.25 1.40429688 C-19.1670912 1.27571149 -21.08361503 1.13871383 -23 1 C-23 0.67 -23 0.34 -23 0 C-20.29204274 -0.19601027 -17.58400195 -0.38204839 -14.875 -0.5625 C-14.11445313 -0.61857422 -13.35390625 -0.67464844 -12.5703125 -0.73242188 C-8.20006872 -1.01498074 -4.31929331 -0.93147699 0 0 Z " fill="#676365" transform="translate(190,187)"/>
<path d="M0 0 C0.33 0.66 0.66 1.32 1 2 C1.66 2 2.32 2 3 2 C3 2.99 3 3.98 3 5 C3.99 5.33 4.98 5.66 6 6 C6.33 7.65 6.66 9.3 7 11 C3.66428571 9.88809524 3.41582921 9.53679327 1.8125 6.625 C1.46832031 6.01914062 1.12414062 5.41328125 0.76953125 4.7890625 C0 3 0 3 0 0 Z " fill="#6C6367" transform="translate(271,313)"/>
<path d="M0 0 C0.66 0 1.32 0 2 0 C5.07692308 5.41538462 5.07692308 5.41538462 4.6875 8.375 C4.460625 8.91125 4.23375 9.4475 4 10 C1.80902348 6.6659053 0.56545837 3.95820859 0 0 Z " fill="#696466" transform="translate(330,133)"/>
<path d="M0 0 C0.66 0 1.32 0 2 0 C2.33 0.99 2.66 1.98 3 3 C2.67 3.33 2.34 3.66 2 4 C1.76807135 5.51469448 1.58784762 7.03754562 1.4375 8.5625 C1.35371094 9.38878906 1.26992187 10.21507812 1.18359375 11.06640625 C1.12300781 11.70449219 1.06242188 12.34257812 1 13 C0.67 13 0.34 13 0 13 C0 8.71 0 4.42 0 0 Z " fill="#6C6666" transform="translate(164,187)"/>
<path d="M0 0 C0.99 0 1.98 0 3 0 C3.33 1.98 3.66 3.96 4 6 C3.01 6.495 3.01 6.495 2 7 C0.5393715 4.35261084 0 3.10551666 0 0 Z " fill="#646464" transform="translate(279,231)"/>
</svg>
